<?xml version="1.0" encoding="UTF-8"?>
<svg width="32" height="32" viewBox="0 0 32 32" fill="none" xmlns="http://www.w3.org/2000/svg">
  <rect width="32" height="32" rx="6" fill="#5038BC"/>
  <path d="M9 16C9 12.134 12.134 9 16 9C19.866 9 23 12.134 23 16C23 19.866 19.866 23 16 23C12.134 23 9 19.866 9 16Z" fill="white"/>
  <path d="M16 12C14.3431 12 13 13.3431 13 15V19C13 19.5523 13.4477 20 14 20C14.5523 20 15 19.5523 15 19V17H17V19C17 19.5523 17.4477 20 18 20C18.5523 20 19 19.5523 19 19V15C19 13.3431 17.6569 12 16 12Z" fill="#5038BC"/>
</svg> 