<svg xmlns="http://www.w3.org/2000/svg" width="300" height="100" viewBox="0 0 300 100" fill="none">
  <!-- Clipboard icon -->
  <rect x="190" y="15" width="85" height="70" rx="10" fill="#0056B3"/>
  <rect x="190" y="15" width="85" height="70" rx="10" stroke="#0056B3" stroke-width="3"/>
  
  <!-- Check marks and lines -->
  <path d="M207 35 L217 45 L230 30" stroke="white" stroke-width="3" stroke-linecap="round" stroke-linejoin="round"/>
  <line x1="240" y1="38" x2="260" y2="38" stroke="white" stroke-width="3" stroke-linecap="round"/>
  
  <path d="M207 50 L217 60 L230 45" stroke="white" stroke-width="3" stroke-linecap="round" stroke-linejoin="round"/>
  <line x1="240" y1="53" x2="260" y2="53" stroke="white" stroke-width="3" stroke-linecap="round"/>
  
  <path d="M207 65 L217 75 L230 60" stroke="white" stroke-width="3" stroke-linecap="round" stroke-linejoin="round"/>
  <line x1="240" y1="68" x2="260" y2="68" stroke="white" stroke-width="3" stroke-linecap="round"/>
  
  <!-- Binding rings -->
  <circle cx="190" cy="35" r="4" fill="#0056B3" stroke="#0067CE" stroke-width="2"/>
  <circle cx="190" cy="50" r="4" fill="#0056B3" stroke="#0067CE" stroke-width="2"/>
  <circle cx="190" cy="65" r="4" fill="#0056B3" stroke="#0067CE" stroke-width="2"/>
  
  <!-- پندار Text in exact style as image -->
  <!-- ر -->
  <path d="M85,65 C85,55 80,45 70,45 C60,45 55,55 45,65 C35,75 25,80 15,80 L15,85 C30,85 40,80 50,70 C60,60 65,55 70,55 C72,55 75,58 75,60 Z" fill="#0056B3"/>
  
  <!-- ا -->
  <path d="M40,25 C40,22 38,20 35,20 C32,20 30,22 30,25 L30,60 L40,60 Z" fill="#0056B3"/>
  
  <!-- د -->
  <path d="M130,30 C130,25 125,20 120,20 C115,20 110,25 110,30 L110,60 L120,60 L120,30 C120,28 122,28 122,30 L122,40 L130,40 Z" fill="#0056B3"/>
  
  <!-- ن -->
  <path d="M100,40 C100,35 95,30 90,30 C85,30 80,35 80,40 L80,50 C80,55 85,60 90,60 C95,60 100,55 100,50 Z M90,50 C88,50 88,45 90,45 C92,45 92,50 90,50 Z" fill="#0056B3"/>
  
  <!-- پ -->
  <path d="M160,40 C160,34 155,30 150,30 C145,30 140,34 140,40 L140,60 L150,60 L150,40 C150,38 152,38 152,40 L152,45 L160,45 Z" fill="#0056B3"/>
  <circle cx="150" cy="70" r="4" fill="#0056B3"/>
</svg> 