<?xml version="1.0" encoding="UTF-8"?>
<svg width="450" height="300" viewBox="0 0 450 300" fill="none" xmlns="http://www.w3.org/2000/svg">
  <rect width="450" height="300" rx="15" fill="#F5F7FA"/>
  
  <!-- Background decorative elements -->
  <path d="M0 200 Q100 150 200 200 Q300 250 450 200" fill="#5038BC" opacity="0.05"/>
  <circle cx="410" cy="50" r="30" fill="#5038BC" opacity="0.1"/>
  <circle cx="40" cy="80" r="20" fill="#5038BC" opacity="0.1"/>
  
  <!-- People using the app -->
  <!-- Person 1 -->
  <circle cx="120" cy="100" r="25" fill="#5038BC"/>
  <path d="M95 165 C95 130 105 125 120 125 C135 125 145 130 145 165 L145 180 L95 180 Z" fill="#5038BC"/>
  <path d="M125 95 Q130 100 135 95" stroke="white" stroke-width="2" stroke-linecap="round"/>
  <path d="M105 95 Q110 100 115 95" stroke="white" stroke-width="2" stroke-linecap="round"/>
  <path d="M110 110 Q120 115 130 110" stroke="white" stroke-width="2" stroke-linecap="round"/>
  
  <!-- Person 2 -->
  <circle cx="230" cy="120" r="25" fill="#5038BC"/>
  <path d="M205 185 C205 150 215 145 230 145 C245 145 255 150 255 185 L255 200 L205 200 Z" fill="#5038BC"/>
  <path d="M235 115 Q240 120 245 115" stroke="white" stroke-width="2" stroke-linecap="round"/>
  <path d="M215 115 Q220 120 225 115" stroke="white" stroke-width="2" stroke-linecap="round"/>
  <path d="M220 130 Q230 135 240 130" stroke="white" stroke-width="2" stroke-linecap="round"/>
  
  <!-- Person 3 -->
  <circle cx="330" cy="100" r="25" fill="#5038BC"/>
  <path d="M305 165 C305 130 315 125 330 125 C345 125 355 130 355 165 L355 180 L305 180 Z" fill="#5038BC"/>
  <path d="M335 95 Q340 100 345 95" stroke="white" stroke-width="2" stroke-linecap="round"/>
  <path d="M315 95 Q320 100 325 95" stroke="white" stroke-width="2" stroke-linecap="round"/>
  <path d="M320 110 Q330 115 340 110" stroke="white" stroke-width="2" stroke-linecap="round"/>
  
  <!-- Mobile devices -->
  <rect x="100" y="165" width="40" height="70" rx="5" fill="#5038BC"/>
  <rect x="103" y="170" width="34" height="60" rx="3" fill="white"/>
  
  <rect x="210" y="185" width="40" height="70" rx="5" fill="#5038BC"/>
  <rect x="213" y="190" width="34" height="60" rx="3" fill="white"/>
  
  <rect x="315" y="165" width="40" height="70" rx="5" fill="#5038BC"/>
  <rect x="318" y="170" width="34" height="60" rx="3" fill="white"/>
  
  <!-- App UI elements on mobiles -->
  <rect x="108" y="175" width="24" height="4" rx="2" fill="#5038BC" opacity="0.7"/>
  <rect x="108" y="185" width="24" height="20" rx="2" fill="#5038BC" opacity="0.2"/>
  <rect x="108" y="210" width="24" height="3" rx="1.5" fill="#5038BC"/>
  <rect x="108" y="218" width="24" height="3" rx="1.5" fill="#5038BC" opacity="0.5"/>
  
  <rect x="218" y="195" width="24" height="4" rx="2" fill="#5038BC" opacity="0.7"/>
  <rect x="218" y="205" width="24" height="20" rx="2" fill="#5038BC" opacity="0.2"/>
  <rect x="218" y="230" width="24" height="3" rx="1.5" fill="#5038BC"/>
  <rect x="218" y="238" width="24" height="3" rx="1.5" fill="#5038BC" opacity="0.5"/>
  
  <rect x="323" y="175" width="24" height="4" rx="2" fill="#5038BC" opacity="0.7"/>
  <rect x="323" y="185" width="24" height="20" rx="2" fill="#5038BC" opacity="0.2"/>
  <rect x="323" y="210" width="24" height="3" rx="1.5" fill="#5038BC"/>
  <rect x="323" y="218" width="24" height="3" rx="1.5" fill="#5038BC" opacity="0.5"/>
  
  <!-- Speech/thought bubbles -->
  <path d="M150 130 L170 120 L190 130 L190 160 L150 160 Z" fill="white" stroke="#5038BC" stroke-width="1.5"/>
  <text x="160" y="150" font-family="monospace" font-size="12" fill="#5038BC">✓</text>
  
  <path d="M260 150 L280 140 L300 150 L300 180 L260 180 Z" fill="white" stroke="#5038BC" stroke-width="1.5"/>
  <text x="270" y="170" font-family="monospace" font-size="12" fill="#5038BC">👍</text>
  
  <path d="M360 130 L380 120 L400 130 L400 160 L360 160 Z" fill="white" stroke="#5038BC" stroke-width="1.5"/>
  <text x="370" y="150" font-family="monospace" font-size="12" fill="#5038BC">⭐</text>
</svg> 