<?xml version="1.0" encoding="UTF-8"?>
<svg width="450" height="300" viewBox="0 0 450 300" fill="none" xmlns="http://www.w3.org/2000/svg">
  <rect width="450" height="300" rx="15" fill="#F5F7FA"/>
  
  <!-- Background elements -->
  <rect x="0" y="250" width="450" height="50" fill="#5038BC" opacity="0.1"/>
  <circle cx="50" cy="50" r="25" fill="#5038BC" opacity="0.2"/>
  <circle cx="400" cy="80" r="20" fill="#5038BC" opacity="0.2"/>
  
  <!-- Developer coding -->
  <rect x="80" y="100" width="140" height="120" rx="5" fill="#5038BC"/>
  <rect x="85" y="105" width="130" height="110" rx="3" fill="white"/>
  
  <!-- Code lines -->
  <rect x="95" y="115" width="110" height="5" rx="2" fill="#5038BC" opacity="0.3"/>
  <rect x="95" y="125" width="90" height="5" rx="2" fill="#5038BC" opacity="0.3"/>
  <rect x="95" y="135" width="100" height="5" rx="2" fill="#5038BC" opacity="0.3"/>
  <rect x="95" y="145" width="60" height="5" rx="2" fill="#5038BC" opacity="0.5"/>
  <rect x="95" y="155" width="100" height="5" rx="2" fill="#5038BC" opacity="0.3"/>
  <rect x="95" y="165" width="105" height="5" rx="2" fill="#5038BC" opacity="0.3"/>
  <rect x="95" y="175" width="70" height="5" rx="2" fill="#5038BC" opacity="0.5"/>
  <rect x="95" y="185" width="90" height="5" rx="2" fill="#5038BC" opacity="0.3"/>
  <rect x="95" y="195" width="110" height="5" rx="2" fill="#5038BC" opacity="0.3"/>
  
  <!-- Person legs -->
  <rect x="125" y="220" width="10" height="30" rx="5" fill="#5038BC"/>
  <rect x="160" y="220" width="10" height="30" rx="5" fill="#5038BC"/>
  
  <!-- Mobile device -->
  <rect x="280" y="110" width="90" height="160" rx="10" fill="#5038BC"/>
  <rect x="285" y="120" width="80" height="140" rx="5" fill="white"/>
  
  <!-- App UI elements -->
  <rect x="295" y="130" width="60" height="10" rx="2" fill="#5038BC" opacity="0.7"/>
  <rect x="295" y="150" width="60" height="60" rx="5" fill="#5038BC" opacity="0.2"/>
  <rect x="295" y="220" width="60" height="8" rx="4" fill="#5038BC"/>
  <rect x="295" y="240" width="30" height="8" rx="4" fill="#5038BC" opacity="0.5"/>
  <rect x="335" y="240" width="20" height="8" rx="4" fill="#5038BC" opacity="0.3"/>
  
  <!-- Connection line between devices -->
  <path d="M220 150 C240 150 240 170 260 170 C280 170 280 150 300 150" stroke="#5038BC" stroke-width="2" stroke-dasharray="5 3"/>
  
  <!-- Code symbols -->
  <text x="235" y="140" font-family="monospace" font-size="15" fill="#5038BC">{}</text>
  <text x="250" y="165" font-family="monospace" font-size="15" fill="#5038BC">()</text>
  <text x="260" y="190" font-family="monospace" font-size="15" fill="#5038BC">[]</text>
</svg> 