<?xml version="1.0" encoding="UTF-8"?>
<svg width="450" height="300" viewBox="0 0 450 300" fill="none" xmlns="http://www.w3.org/2000/svg">
  <rect width="450" height="300" rx="15" fill="#F5F7FA"/>
  
  <!-- Background elements -->
  <circle cx="400" cy="50" r="25" fill="#5038BC" opacity="0.2"/>
  <circle cx="50" cy="250" r="35" fill="#5038BC" opacity="0.2"/>
  <path d="M380 250 Q420 200 450 230" stroke="#5038BC" stroke-width="2" opacity="0.3"/>
  <path d="M0 100 Q50 150 100 120" stroke="#5038BC" stroke-width="2" opacity="0.3"/>
  
  <!-- Laptop illustration -->
  <rect x="130" y="80" width="190" height="120" rx="8" fill="#5038BC"/>
  <rect x="135" y="85" width="180" height="110" rx="4" fill="white"/>
  
  <!-- App interface on screen -->
  <rect x="145" y="95" width="160" height="90" rx="2" fill="#F5F7FA"/>
  <rect x="155" y="105" width="100" height="10" rx="2" fill="#5038BC" opacity="0.7"/>
  <rect x="155" y="125" width="140" height="5" rx="2" fill="#5038BC" opacity="0.3"/>
  <rect x="155" y="135" width="140" height="5" rx="2" fill="#5038BC" opacity="0.3"/>
  <rect x="155" y="145" width="90" height="5" rx="2" fill="#5038BC" opacity="0.3"/>
  <rect x="155" y="165" width="50" height="15" rx="7.5" fill="#5038BC"/>
  
  <!-- Laptop base -->
  <path d="M110 200 L340 200 C345 200 350 205 350 210 L345 230 C345 235 340 240 335 240 L115 240 C110 240 105 235 105 230 L100 210 C100 205 105 200 110 200 Z" fill="#5038BC"/>
  
  <!-- Thinking bubbles -->
  <circle cx="360" cy="100" r="15" fill="white" stroke="#5038BC" stroke-width="2"/>
  <circle cx="390" cy="80" r="10" fill="white" stroke="#5038BC" stroke-width="2"/>
  <circle cx="410" cy="65" r="6" fill="white" stroke="#5038BC" stroke-width="2"/>
  
  <!-- Person illustration -->
  <circle cx="75" cy="120" r="30" fill="#5038BC"/>
  <path d="M45 180 C45 150 60 140 75 140 C90 140 105 150 105 180 L105 200 L45 200 Z" fill="#5038BC"/>
  <path d="M80 110 Q85 115 90 110" stroke="white" stroke-width="2" stroke-linecap="round"/>
  <path d="M60 110 Q65 115 70 110" stroke="white" stroke-width="2" stroke-linecap="round"/>
  <path d="M65 125 Q75 130 85 125" stroke="white" stroke-width="2" stroke-linecap="round"/>
</svg> 